<svg width="66" height="25" viewBox="0 0 66 25" fill="none" xmlns="http://www.w3.org/2000/svg">
<g clip-path="url(#clip0_24_82)">
<rect y="0.446289" width="65.625" height="24.1071" rx="4" fill="#E2E8F0"/>
<path d="M0 4.44629C0 2.23715 1.79086 0.446289 4 0.446289H24.7642V24.5534H4C1.79086 24.5534 0 22.7626 0 20.5534V4.44629Z" fill="#2050E0"/>
<path d="M12.3821 4.0625L12.6629 4.94721H13.5717L12.8365 5.49397L13.1173 6.37868L12.3821 5.83157L11.647 6.37868L11.9278 5.49397L11.1924 4.94721H12.1012L12.3821 4.0625Z" fill="#F8D12E"/>
<path d="M12.3821 18.6211L12.6629 19.5061H13.5717L12.8365 20.0527L13.1173 20.9373L12.3821 20.3906L11.647 20.9373L11.9278 20.0527L11.1924 19.5061H12.1012L12.3821 18.6211Z" fill="#F8D12E"/>
<path d="M16.121 5.38623L16.4017 6.27093H17.3107L16.5753 6.81791L16.8562 7.70241L16.121 7.15543L15.3857 7.70241L15.6666 6.81791L14.9314 6.27093H15.8404L16.121 5.38623Z" fill="#F8D12E"/>
<path d="M19.1439 14.9106L19.4245 15.7956H20.3334L19.5981 16.3424L19.8791 17.2268L19.1439 16.6803L18.4086 17.2268L18.6894 16.3424L17.9541 15.7956H18.863L19.1439 14.9106Z" fill="#F8D12E"/>
<path d="M19.8599 11.3418L20.1406 12.2264H21.0495L20.3142 12.7731L20.595 13.658L19.8599 13.1115L19.1246 13.658L19.4056 12.7731L18.6702 12.2264H19.5789L19.8599 11.3418Z" fill="#F8D12E"/>
<path d="M4.90442 11.3418L5.18512 12.2264H6.0939L5.35857 12.7731L5.63961 13.658L4.90442 13.1115L4.16904 13.658L4.44993 12.7731L3.7146 12.2264H4.62353L4.90442 11.3418Z" fill="#F8D12E"/>
<path d="M5.52356 14.9106L5.80426 15.7956H6.71304L5.9779 16.3424L6.25855 17.2268L5.52356 16.6803L4.78823 17.2268L5.06907 16.3424L4.33374 15.7956H5.24272L5.52356 14.9106Z" fill="#F8D12E"/>
<path d="M19.1439 7.67871L19.4245 8.56371H20.3334L19.5981 9.11043L19.8791 9.99489L19.1439 9.44836L18.4086 9.99489L18.6894 9.11043L17.9541 8.56371H18.863L19.1439 7.67871Z" fill="#F8D12E"/>
<path d="M5.83313 7.67871L6.11383 8.56371H7.02261L6.28747 9.11043L6.56812 9.99489L5.83313 9.44836L5.0978 9.99489L5.37864 9.11043L4.64331 8.56371H5.55229L5.83313 7.67871Z" fill="#F8D12E"/>
<path d="M16.8008 17.9595L17.0815 18.844H17.9904L17.2549 19.3911L17.5359 20.2756L16.8008 19.729L16.0653 20.2756L16.3464 19.3911L15.6111 18.844H16.52L16.8008 17.9595Z" fill="#F8D12E"/>
<path d="M8.64329 5.38623L8.92393 6.27093H9.83291L9.09758 6.81791L9.37862 7.70241L8.64329 7.15543L7.9081 7.70241L8.18894 6.81791L7.45361 6.27093H8.3624L8.64329 5.38623Z" fill="#F8D12E"/>
<path d="M7.96326 17.9595L8.24408 18.8445H9.15298L8.41771 19.391L8.69853 20.2756L7.96326 19.7293L7.22813 20.2756L7.50895 19.391L6.77368 18.8445H7.68239L7.96326 17.9595Z" fill="#F8D12E"/>
<path fill-rule="evenodd" clip-rule="evenodd" d="M29.0979 9.84544C29.0979 11.5474 30.4371 12.6152 32.0823 12.6152C33.1239 12.6152 33.9258 12.2058 34.521 11.5715V9.47614H31.8591V10.6242H33.1239V11.0738C32.9007 11.2504 32.5122 11.3949 32.0823 11.3949C31.1812 11.3949 30.5446 10.7205 30.5446 9.84544C30.5446 8.97036 31.1812 8.29598 32.0823 8.29598C32.6031 8.29598 33.0247 8.57697 33.2479 8.93022L34.4384 8.32007C34.0333 7.65372 33.2893 7.07568 32.0823 7.07568C30.4371 7.07568 29.0979 8.14345 29.0979 9.84544ZM35.356 12.5189V7.16399H37.6707C39.4068 7.16399 40.6551 8.17556 40.6551 9.83741C40.6551 11.4993 39.4068 12.5189 37.679 12.5189H35.356ZM36.7779 11.3146H37.6707C38.638 11.3146 39.2001 10.6322 39.2001 9.83741C39.2001 9.0105 38.6876 8.36824 37.679 8.36824H36.7779V11.3146ZM41.3661 12.5189V7.16399H44.1272C45.3673 7.16399 46.0452 7.97485 46.0452 8.94627C46.0452 9.90967 45.3673 10.7045 44.1272 10.7045H42.788V12.5189H41.3661ZM44.5985 8.93825C44.5985 8.56894 44.3174 8.3281 43.9371 8.3281H42.788V9.53234H43.9371C44.3174 9.53234 44.5985 9.29952 44.5985 8.93825ZM49.757 12.5189L48.8311 10.7045H48.1036V12.5189H46.6817V7.16399H49.4429C50.6664 7.16399 51.3608 7.95077 51.3608 8.94627C51.3608 9.87755 50.7739 10.3753 50.2613 10.5519L51.3856 12.5189H49.757ZM49.9141 8.93022C49.9141 8.56092 49.6 8.3281 49.228 8.3281H48.1036V9.53234H49.228C49.6 9.53234 49.9141 9.29952 49.9141 8.93022Z" fill="#2B3945"/>
<path fill-rule="evenodd" clip-rule="evenodd" d="M14.0626 11.9792H14.3279C14.6209 11.9792 14.8586 12.2185 14.8586 12.5134V14.6502C14.8586 14.9451 14.6209 15.1844 14.3279 15.1844H10.4364C10.1435 15.1844 9.90576 14.9451 9.90576 14.6502V12.5134C9.90576 12.2185 10.1435 11.9792 10.4364 11.9792H10.7018V11.1779C10.7018 10.2453 11.4557 9.48633 12.3822 9.48633C13.3086 9.48633 14.0626 10.2453 14.0626 11.1779V11.9792ZM11.5862 11.1779V11.9792H13.1782V11.1779C13.1782 10.7361 12.8211 10.3767 12.3822 10.3767C11.9433 10.3767 11.5862 10.7361 11.5862 11.1779Z" fill="white"/>
<path d="M32.2813 16.4249C32.255 16.342 32.2188 16.2658 32.1728 16.1963C32.1268 16.1268 32.0676 16.0666 31.9953 16.0158C31.9229 15.965 31.8375 15.9262 31.7388 15.8995C31.6435 15.8701 31.5317 15.8554 31.4035 15.8554C31.2161 15.8554 31.0534 15.8861 30.9153 15.9476C30.7805 16.0091 30.6704 16.092 30.5849 16.1963C30.4995 16.2979 30.4354 16.4142 30.3926 16.5452C30.3532 16.6762 30.3334 16.8099 30.3334 16.9463C30.3334 17.0827 30.3532 17.2163 30.3926 17.3474C30.4354 17.4784 30.4995 17.596 30.5849 17.7003C30.6704 17.8019 30.7805 17.8835 30.9153 17.945C31.0534 18.0064 31.2161 18.0372 31.4035 18.0372C31.5416 18.0372 31.6632 18.0185 31.7684 17.981C31.8736 17.9409 31.964 17.8875 32.0396 17.8206C32.1152 17.7511 32.1744 17.6709 32.2172 17.58C32.2599 17.4891 32.2878 17.3915 32.301 17.2872H32.9026C32.8894 17.4583 32.8434 17.6147 32.7645 17.7564C32.6889 17.8982 32.5854 18.0212 32.4539 18.1254C32.3224 18.227 32.1678 18.3059 31.9903 18.3621C31.8128 18.4182 31.6172 18.4463 31.4035 18.4463C31.1405 18.4463 30.9038 18.4075 30.6934 18.33C30.4863 18.2498 30.3104 18.1415 30.1658 18.0051C30.0211 17.8687 29.9094 17.7097 29.8305 17.5278C29.7548 17.346 29.717 17.1522 29.717 16.9463C29.717 16.7431 29.7548 16.5506 29.8305 16.3687C29.9094 16.1869 30.0211 16.0278 30.1658 15.8915C30.3104 15.7551 30.4863 15.6468 30.6934 15.5666C30.9038 15.4864 31.1405 15.4463 31.4035 15.4463C31.6008 15.4463 31.7865 15.469 31.9607 15.5145C32.135 15.5573 32.2878 15.6214 32.4193 15.707C32.5541 15.7899 32.6626 15.8915 32.7448 16.0118C32.827 16.1321 32.8779 16.2698 32.8977 16.4249H32.2813Z" fill="#2B3945"/>
<path d="M35.0855 15.8554C34.8982 15.8554 34.7354 15.8861 34.5973 15.9476C34.4626 16.0091 34.3524 16.092 34.267 16.1963C34.1815 16.2979 34.1174 16.4142 34.0746 16.5452C34.0352 16.6762 34.0155 16.8099 34.0155 16.9463C34.0155 17.0827 34.0352 17.2163 34.0746 17.3474C34.1174 17.4784 34.1815 17.596 34.267 17.7003C34.3524 17.8019 34.4626 17.8835 34.5973 17.945C34.7354 18.0064 34.8982 18.0372 35.0855 18.0372C35.2729 18.0372 35.434 18.0064 35.5688 17.945C35.7069 17.8835 35.8186 17.8019 35.9041 17.7003C35.9896 17.596 36.0521 17.4784 36.0915 17.3474C36.1342 17.2163 36.1556 17.0827 36.1556 16.9463C36.1556 16.8099 36.1342 16.6762 36.0915 16.5452C36.0521 16.4142 35.9896 16.2979 35.9041 16.1963C35.8186 16.092 35.7069 16.0091 35.5688 15.9476C35.434 15.8861 35.2729 15.8554 35.0855 15.8554ZM35.0855 15.4463C35.3485 15.4463 35.5836 15.4864 35.7907 15.5666C36.0011 15.6468 36.1786 15.7551 36.3233 15.8915C36.4679 16.0278 36.578 16.1869 36.6537 16.3687C36.7326 16.5506 36.772 16.7431 36.772 16.9463C36.772 17.1522 36.7326 17.346 36.6537 17.5278C36.578 17.7097 36.4679 17.8687 36.3233 18.0051C36.1786 18.1415 36.0011 18.2498 35.7907 18.33C35.5836 18.4075 35.3485 18.4463 35.0855 18.4463C34.8225 18.4463 34.5858 18.4075 34.3754 18.33C34.1683 18.2498 33.9925 18.1415 33.8478 18.0051C33.7032 17.8687 33.5914 17.7097 33.5125 17.5278C33.4369 17.346 33.3991 17.1522 33.3991 16.9463C33.3991 16.7431 33.4369 16.5506 33.5125 16.3687C33.5914 16.1869 33.7032 16.0278 33.8478 15.8915C33.9925 15.7551 34.1683 15.6468 34.3754 15.5666C34.5858 15.4864 34.8225 15.4463 35.0855 15.4463Z" fill="#2B3945"/>
<path d="M37.4464 15.5145H38.3143L39.2858 17.7564H39.2956L40.2424 15.5145H41.1004V18.3781H40.5136V16.1682H40.5038L39.5274 18.3781H39.0195L38.0431 16.1682H38.0332V18.3781H37.4464V15.5145Z" fill="#2B3945"/>
<path d="M41.9618 15.5145H43.5151C43.765 15.5145 43.9688 15.5439 44.1266 15.6027C44.2844 15.6615 44.406 15.7351 44.4915 15.8233C44.577 15.9115 44.6345 16.0078 44.6641 16.1121C44.697 16.2163 44.7134 16.3126 44.7134 16.4008C44.7134 16.4891 44.697 16.5853 44.6641 16.6896C44.6345 16.7912 44.577 16.8861 44.4915 16.9744C44.406 17.0626 44.2844 17.1361 44.1266 17.195C43.9688 17.2511 43.765 17.2792 43.5151 17.2792H42.5782V18.3781H41.9618V15.5145ZM42.5782 16.8701H43.4806C43.5496 16.8701 43.6203 16.8621 43.6926 16.846C43.765 16.83 43.8307 16.8046 43.8899 16.7698C43.9523 16.7324 44.0017 16.6843 44.0378 16.6254C44.0773 16.5639 44.097 16.4877 44.097 16.3968C44.097 16.3032 44.0806 16.2257 44.0477 16.1642C44.0148 16.1027 43.9704 16.0546 43.9145 16.0198C43.8587 15.9824 43.7945 15.957 43.7222 15.9436C43.6499 15.9302 43.5726 15.9236 43.4905 15.9236H42.5782V16.8701Z" fill="#2B3945"/>
<path d="M45.3741 15.5145H45.9905V17.945H47.7806V18.3781H45.3741V15.5145Z" fill="#2B3945"/>
<path d="M48.329 15.5145H48.9454V18.3781H48.329V15.5145Z" fill="#2B3945"/>
<path d="M50.7666 15.5145H51.4224L52.7785 18.3781H52.1177L51.7874 17.6201H50.382L50.0516 18.3781H49.4154L50.7666 15.5145ZM50.5496 17.2391H51.6246L51.097 16.0078H51.0822L50.5496 17.2391Z" fill="#2B3945"/>
<path d="M53.2124 15.5145H53.8634L55.4709 17.6241H55.4808V15.5145H56.0676V18.3781H55.4167L53.814 16.2725H53.7992V18.3781H53.2124V15.5145Z" fill="#2B3945"/>
<path d="M56.5838 15.5145H59.434V15.9476H58.3146V18.3781H57.6982V15.9476H56.5838V15.5145Z" fill="#2B3945"/>
</g>
<defs>
<clipPath id="clip0_24_82">
<rect width="65.625" height="24.1071" fill="white" transform="translate(0 0.446289)"/>
</clipPath>
</defs>
</svg>
