<svg width="82" height="21" viewBox="0 0 82 21" fill="none" xmlns="http://www.w3.org/2000/svg">
<path fill-rule="evenodd" clip-rule="evenodd" d="M7.23618 5.28857H12.7776C15.7528 5.28857 16.8728 6.85955 16.6997 9.16752C16.4137 12.9778 14.2051 15.0859 11.2756 15.0859H9.79661C9.39466 15.0859 9.12431 15.3634 9.0156 16.1153L8.38766 20.4866C8.34617 20.77 8.20314 20.9341 7.98857 20.9565H4.50697C4.1794 20.9565 4.06354 20.6954 4.14937 20.13L6.27209 6.11658C6.35505 5.55563 6.64971 5.28857 7.23618 5.28857Z" fill="#009EE3"/>
<path fill-rule="evenodd" clip-rule="evenodd" d="M31.294 5.02832C33.1636 5.02832 34.8887 6.08612 34.6526 8.72239C34.3666 11.8555 32.7573 13.5891 30.2184 13.5966H27.9998C27.6808 13.5966 27.5263 13.8681 27.4434 14.4246L27.0143 17.2698C26.9499 17.6995 26.7382 17.9113 26.4264 17.9113H24.3623C24.0333 17.9113 23.9189 17.692 23.9918 17.2012L25.6954 5.79817C25.7798 5.23719 25.9815 5.02832 26.3491 5.02832H31.2897H31.294ZM27.9326 11.1334H29.6133C30.6647 11.0916 31.3627 10.3322 31.4328 8.9626C31.4757 8.11666 30.9279 7.51093 30.0567 7.5154L28.4747 7.52286L27.9326 11.1334ZM40.2641 17.0385C40.4529 16.8595 40.6446 16.767 40.6174 16.9878L40.5502 17.516C40.5159 17.792 40.6203 17.9382 40.8663 17.9382H42.7001C43.0091 17.9382 43.1593 17.8084 43.2351 17.3101L44.3651 9.91297C44.4223 9.54147 44.3351 9.35946 44.0647 9.35946H42.0479C41.8662 9.35946 41.7775 9.46538 41.7303 9.75482L41.6559 10.2099C41.6173 10.4471 41.5129 10.4889 41.4156 10.2502C41.0737 9.40571 40.2012 9.02675 38.9839 9.05659C36.156 9.11776 34.2493 11.3572 34.0447 14.2277C33.8874 16.4477 35.4122 18.1918 37.4233 18.1918C38.8824 18.1918 39.5346 17.7442 40.2699 17.043L40.2641 17.0385ZM38.7279 15.9002C37.5106 15.9002 36.6624 14.8871 36.8383 13.6458C37.0142 12.4045 38.1529 11.3915 39.3701 11.3915C40.5874 11.3915 41.4356 12.4045 41.2597 13.6458C41.0838 14.8871 39.9466 15.9002 38.7279 15.9002ZM47.954 9.33558H46.0945C45.7111 9.33558 45.5552 9.63397 45.6768 10.001L47.9855 17.052L45.7211 20.4074C45.5309 20.6878 45.6782 20.943 45.9457 20.943H48.0355C48.1573 20.9577 48.2806 20.9355 48.3907 20.8792C48.5008 20.8228 48.593 20.7347 48.6563 20.6252L55.7569 10.0025C55.9757 9.67575 55.8728 9.3326 55.5137 9.3326H53.5355C53.1965 9.3326 53.0606 9.47285 52.866 9.76676L49.9051 14.2426L48.582 9.75631C48.5047 9.48478 48.3116 9.33558 47.9554 9.33558H47.954Z" fill="#113984"/>
<path fill-rule="evenodd" clip-rule="evenodd" d="M63.1434 5.02838C65.013 5.02838 66.7381 6.08618 66.502 8.72248C66.216 11.8556 64.6067 13.5893 62.0678 13.5967H59.8506C59.5317 13.5967 59.3772 13.8683 59.2942 14.4248L58.8651 17.2699C58.8007 17.6996 58.589 17.9115 58.2772 17.9115H56.2131C55.8841 17.9115 55.7697 17.6922 55.8426 17.2013L57.5491 5.79525C57.6335 5.23427 57.8352 5.02539 58.2028 5.02539H63.1434V5.02838ZM59.782 11.1335H61.4627C62.5141 11.0917 63.2121 10.3323 63.2822 8.96269C63.3251 8.11674 62.7773 7.511 61.9061 7.51548L60.3241 7.52294L59.782 11.1335ZM72.1135 17.0387C72.3023 16.8597 72.494 16.7672 72.4668 16.988L72.3996 17.5161C72.3653 17.7921 72.4697 17.9383 72.7157 17.9383H74.5495C74.8585 17.9383 75.0087 17.8085 75.0845 17.3102L76.2145 9.91307C76.2717 9.54157 76.1845 9.35955 75.9141 9.35955H73.9001C73.7184 9.35955 73.6298 9.46548 73.5826 9.75492L73.5082 10.21C73.4696 10.4472 73.3651 10.489 73.2679 10.2503C72.926 9.4058 72.0534 9.02684 70.8362 9.05668C68.0083 9.11785 66.1015 11.3573 65.897 14.2278C65.7396 16.4479 67.2644 18.192 69.2756 18.192C70.7346 18.192 71.3869 17.7444 72.1221 17.0432L72.1135 17.0387ZM70.5787 15.9003C69.3614 15.9003 68.5132 14.8873 68.6891 13.646C68.8651 12.4047 70.0037 11.3916 71.221 11.3916C72.4382 11.3916 73.2865 12.4047 73.1105 13.646C72.9346 14.8873 71.796 15.9003 70.5787 15.9003ZM79.0367 17.9503H76.9197C76.8829 17.952 76.8461 17.9452 76.8121 17.9304C76.7781 17.9156 76.7476 17.8932 76.7229 17.8646C76.6982 17.8361 76.6798 17.8023 76.669 17.7655C76.6583 17.7287 76.6555 17.6899 76.6608 17.6519L78.5203 5.36407C78.5381 5.28021 78.5825 5.20508 78.6464 5.1509C78.7103 5.09672 78.7899 5.06669 78.8722 5.06568H80.9892C81.026 5.06396 81.0628 5.07074 81.0968 5.08555C81.1308 5.10035 81.1613 5.12281 81.186 5.15131C81.2107 5.17982 81.2291 5.21367 81.2399 5.25045C81.2506 5.28722 81.2534 5.32602 81.2481 5.36407L79.3886 17.6519C79.3714 17.7363 79.3272 17.8121 79.2633 17.8669C79.1993 17.9216 79.1194 17.9521 79.0367 17.9533V17.9503Z" fill="#009EE3"/>
<path fill-rule="evenodd" clip-rule="evenodd" d="M3.77075 0.464355H9.31787C10.8799 0.464355 12.7337 0.516574 13.9724 1.65793C14.8006 2.42032 15.2355 3.63329 15.1353 4.94025C14.7949 9.35795 12.2616 11.8331 8.863 11.8331H6.12806C5.66175 11.8331 5.35421 12.1554 5.22261 13.0267L4.45878 18.0994C4.40871 18.4276 4.27282 18.6215 4.02965 18.6454H0.606691C0.227633 18.6454 0.0931738 18.347 0.191872 17.6876L2.65217 1.42816C2.75087 0.774683 3.0956 0.464355 3.77075 0.464355Z" fill="#113984"/>
<path fill-rule="evenodd" clip-rule="evenodd" d="M5.302 12.5116L6.27039 6.11566C6.35478 5.55469 6.64945 5.28613 7.23592 5.28613H12.7773C13.6942 5.28613 14.4366 5.43533 15.0173 5.71134C14.4609 9.64409 12.0221 11.8283 8.82939 11.8283H6.09874C5.73256 11.8298 5.46364 12.0208 5.302 12.5116Z" fill="#172C70"/>
</svg>
