<svg width="73" height="29" viewBox="0 0 73 29" fill="none" xmlns="http://www.w3.org/2000/svg">
<g clip-path="url(#clip0_2476_2029)">
<path d="M59.4025 15.6043C58.2752 15.6043 57.3549 14.6841 57.3549 13.5568C57.3549 12.418 58.2752 11.5092 59.4025 11.5092C60.5298 11.5092 61.45 12.4295 61.45 13.5568C61.4615 14.6841 60.5413 15.6043 59.4025 15.6043ZM59.4025 9.55371C57.1939 9.55371 55.3994 11.3482 55.3994 13.5568C55.3994 15.7654 57.1939 17.5599 59.4025 17.5599C61.6111 17.5599 63.4056 15.7654 63.4056 13.5568C63.4056 11.3367 61.6111 9.55371 59.4025 9.55371Z" fill="#FFFCF7"/>
<path d="M41.0206 15.6043C39.8933 15.6043 38.9731 14.6841 38.9731 13.5568C38.9731 12.418 39.8933 11.5092 41.0206 11.5092C42.1479 11.5092 43.0682 12.4295 43.0682 13.5568C43.0682 14.6841 42.1479 15.6043 41.0206 15.6043ZM41.0206 9.55371C38.8121 9.55371 37.0176 11.3482 37.0176 13.5568C37.0176 15.7654 38.8121 17.5599 41.0206 17.5599C43.2292 17.5599 45.0237 15.7654 45.0237 13.5568C45.0122 11.3367 43.2292 9.55371 41.0206 9.55371Z" fill="#FFFCF7"/>
<path d="M55.1466 15.7194C54.8935 15.7884 54.5024 15.869 54.3644 15.869C53.6742 15.869 53.5362 15.6274 53.5362 14.9832V11.2792H55.1696V9.73783H53.5362V7.55225H51.6957L51.3046 9.73783H50.0277H49.9242C48.8774 9.73783 48.0837 10.382 47.5776 11.3828L46.9449 9.73783H45.6221V17.4104H47.8767V14.0745C47.8767 12.395 48.8774 11.3137 50.0507 11.2792H51.2816V15.0983C51.2816 16.8927 52.2018 17.5599 53.6972 17.5599C54.4679 17.5599 55.0661 17.3989 55.4227 17.2838L55.1466 15.7194Z" fill="#FFFCF7"/>
<path d="M66.1434 12.1532V17.4101H63.9463V9.72607H65.2806L65.7293 10.8994" fill="#FFFCF7"/>
<path d="M65.7178 10.9111C66.385 10.1404 67.2937 9.55371 68.3635 9.55371C70.1925 9.55371 70.9402 11.0146 70.9402 12.3605V17.4103H68.6856V12.4295C68.6856 11.7738 68.1334 11.4172 67.5468 11.4172C66.9141 11.4172 66.5115 11.7853 66.1549 12.1649" fill="#FFFCF7"/>
<path d="M28.2637 6.9541H30.7828L34.2338 13.5224V6.9541H36.3158V17.4104H34.0382L30.3457 10.175V17.4104H28.2637V6.9541Z" fill="#FFFCF7"/>
<path d="M70.9402 9.73779V9.88733H71.1472V10.612H71.3198V9.88733H71.5383V9.73779H70.9402Z" fill="#FFFCF7"/>
<path d="M72.194 9.73779L72.0444 10.3129L71.8834 9.73779H71.6533V10.612H71.8029V9.92184L71.9869 10.612H72.1019L72.286 9.92184V10.612H72.424V9.73779H72.194Z" fill="#FFFCF7"/>
<path d="M30.99 23.5758C30.99 22.9087 30.7829 22.1264 30.0237 22.1264C29.6671 22.1264 29.345 22.2875 29.0575 22.5866V24.7837C29.322 25.0712 29.5636 25.2208 29.9317 25.2208C30.6104 25.2093 30.99 24.6226 30.99 23.5758ZM28.9079 25.2093L28.7469 25.7039H28.3328V19.9639H29.0575V22.0574C29.299 21.7929 29.6901 21.5168 30.1848 21.5168C31.2775 21.5168 31.7607 22.5981 31.7607 23.5758C31.7607 24.8872 31.082 25.7729 30.0697 25.7729C29.5406 25.7729 29.184 25.5544 28.9079 25.2093Z" fill="#A0A0A0"/>
<path d="M32.2209 21.5977H32.9571C32.9571 21.5977 33.9924 25.0601 33.9924 25.0716L34.9587 21.5977H35.6719L34.2915 26.0148C34.0499 26.774 33.6473 27.1997 32.8536 27.1997C32.6926 27.1997 32.52 27.1766 32.359 27.1306L32.451 26.613C32.5545 26.6245 32.6581 26.659 32.7961 26.659C33.2217 26.659 33.5438 26.4635 33.7048 25.9573L32.2209 21.5977Z" fill="#A0A0A0"/>
<path d="M37.8228 25.1058L38.1793 24.5996C38.5359 24.8642 39.0421 25.1518 39.8013 25.1518C40.549 25.1518 40.9861 24.7952 40.9861 24.174C40.9861 23.4838 40.457 23.2653 39.6978 23.0007C38.881 22.7131 38.1333 22.345 38.1333 21.2982C38.1333 20.3665 38.8695 19.8604 39.8358 19.8604C40.526 19.8604 40.9286 19.9754 41.3772 20.2284L41.0781 20.7806C40.7215 20.585 40.3419 20.47 39.8243 20.47C39.2146 20.47 38.8005 20.7116 38.8005 21.2867C38.8005 21.8964 39.2031 22.0919 40.0428 22.391C40.8481 22.6671 41.6993 23.0237 41.6993 24.151C41.6993 25.1518 40.9861 25.7499 39.8128 25.7499C38.858 25.7729 38.2024 25.4278 37.8228 25.1058Z" fill="#A0A0A0"/>
<path d="M42.1135 21.5977H42.8497C42.8497 21.5977 43.885 25.0601 43.885 25.0716L44.8513 21.5977H45.5644L44.1841 26.0148C43.9425 26.774 43.5399 27.1997 42.7462 27.1997C42.5852 27.1997 42.4126 27.1766 42.2516 27.1306L42.3436 26.613C42.4471 26.6245 42.5506 26.659 42.6887 26.659C43.1143 26.659 43.4364 26.4635 43.5974 25.9573L42.1135 21.5977Z" fill="#A0A0A0"/>
<path d="M50.6602 21.5166C51.4884 21.5166 51.707 22.2183 51.707 22.897V25.7037H50.9823V22.897C50.9823 22.4944 50.9132 22.1263 50.4186 22.1263C50.085 22.1263 49.7284 22.3333 49.3718 22.6899V25.7037H48.6471V22.897C48.6471 22.4944 48.5781 22.1263 48.0835 22.1263C47.7384 22.1263 47.3703 22.3678 47.0367 22.7014V25.7037H46.312V21.5971H46.7376L46.9217 22.2643C47.3013 21.8502 47.7614 21.5166 48.3136 21.5166C48.8657 21.5166 49.0958 21.8157 49.2568 22.2298C49.6364 21.8042 50.131 21.5166 50.6602 21.5166Z" fill="#A0A0A0"/>
<path d="M55.0546 23.5872C54.2378 23.7367 53.7087 23.9092 53.5016 24.1623C53.3981 24.2889 53.3751 24.4039 53.3751 24.5764C53.3751 24.979 53.5707 25.2091 54.0078 25.2091C54.4219 25.2091 54.79 25.002 55.0546 24.8065V23.5872ZM55.0546 22.9315C55.0546 22.3793 54.882 22.1033 54.2839 22.1033C53.8697 22.1033 53.5016 22.2643 53.1105 22.4599L52.846 21.9767C53.2716 21.7122 53.7317 21.5166 54.3299 21.5166C55.3536 21.5166 55.7562 22.0687 55.7562 22.989V25.7152H55.3421L55.1581 25.2206C54.8705 25.5082 54.4219 25.7728 53.8928 25.7728C53.1681 25.7728 52.6389 25.3241 52.6389 24.6339C52.6389 24.1853 52.8115 23.8632 53.1911 23.6332C53.5592 23.4031 54.2148 23.2421 55.0546 23.1155V22.9315Z" fill="#A0A0A0"/>
<path d="M56.9639 21.5971H57.3895L57.5735 22.2758C57.9531 21.8502 58.4363 21.5166 59.0459 21.5166C59.9317 21.5166 60.1617 22.2183 60.1617 22.897V25.7037H59.437V22.897C59.437 22.4944 59.3335 22.1263 58.8044 22.1263C58.4248 22.1263 58.0222 22.3678 57.6886 22.7129V25.7037H56.9639V21.5971Z" fill="#A0A0A0"/>
<path d="M60.9326 22.1038V21.5976H61.5653L61.7493 20.4243H62.267V21.5976H63.1872V22.1038H62.267V24.6344C62.267 25.014 62.336 25.2211 62.7271 25.2211C62.8881 25.2211 63.0147 25.1866 63.1987 25.1406L63.3023 25.6352C63.1412 25.7042 62.8881 25.7617 62.6351 25.7617C61.8874 25.7617 61.5538 25.4051 61.5538 24.669V22.0923H60.9326V22.1038Z" fill="#A0A0A0"/>
<path d="M66.408 23.3686C66.385 22.5059 66.0974 22.0572 65.5223 22.0572C65.0046 22.0572 64.6595 22.4599 64.602 23.3686H66.408ZM65.6258 25.1976C66.0974 25.1976 66.3965 25.0135 66.7416 24.795L67.0407 25.2321C66.6381 25.5542 66.27 25.7728 65.5568 25.7728C64.4985 25.7728 63.8198 24.956 63.8198 23.6562C63.8198 22.3908 64.4755 21.5166 65.4993 21.5166C66.5576 21.5166 67.1212 22.3103 67.1212 23.6792V23.8517H64.5675C64.625 24.726 64.9356 25.1976 65.6258 25.1976Z" fill="#A0A0A0"/>
<path d="M67.7883 23.6792C67.7883 22.6209 68.26 21.5166 69.5253 21.5166C70.0544 21.5166 70.4455 21.6431 70.8136 21.9537L70.5031 22.4368C70.2385 22.2413 69.9279 22.1033 69.5368 22.1033C68.6741 22.1033 68.5475 22.989 68.5475 23.6907C68.5475 24.3694 68.6971 25.1976 69.5598 25.1976C69.9739 25.1976 70.2615 25.0365 70.5376 24.8065L70.8827 25.2321C70.5836 25.5312 70.1695 25.7842 69.5253 25.7842C68.2715 25.7727 67.7883 24.703 67.7883 23.6792Z" fill="#A0A0A0"/>
<path d="M12.6771 8.19613C10.4915 8.19613 8.43248 9.04736 6.87957 10.6003C5.32665 12.1532 4.47543 14.2122 4.47543 16.3978C4.47543 18.5834 5.32665 20.6425 6.87957 22.1954C8.43248 23.7483 10.4915 24.5995 12.6771 24.5995C14.8627 24.5995 16.9217 23.7483 18.4747 22.1954C20.0161 20.6425 20.8673 18.5834 20.8788 16.3978C20.8788 14.2122 20.0276 12.1532 18.4747 10.6003C16.9217 9.05886 14.8627 8.19613 12.6771 8.19613ZM12.6771 28.384C6.07435 28.384 0.690918 23.0006 0.690918 16.3978C0.690918 9.78355 6.07435 4.41162 12.6771 4.41162C19.2799 4.41162 24.6633 9.78355 24.6633 16.3978C24.6633 23.0006 19.2799 28.384 12.6771 28.384Z" fill="#FFC20E"/>
<path d="M26.6649 2.56006H25.7332V3.49182H26.6649V2.56006Z" fill="#FFC20E"/>
<path d="M26.6649 0.696289H25.7332V1.62803H26.6649V0.696289Z" fill="#FFC20E"/>
<path d="M23.9846 3.4917H23.1104V4.40044H23.9846V3.4917Z" fill="white"/>
<path d="M22.2593 5.28613H21.3735V6.16036H22.2593V5.28613Z" fill="#FFFCF7"/>
<path d="M24.9509 4.40039H23.9731V5.27463H24.9509V4.40039Z" fill="#FFFCF7"/>
<path d="M21.3735 4.44629H20.4993V5.28601H21.3735V4.44629Z" fill="#FFFCF7"/>
<path d="M23.9846 5.28613H23.1104V6.16036H23.9846V5.28613Z" fill="#FFFCF7"/>
<path d="M25.7332 1.63965H24.813V2.5714H25.7332V1.63965Z" fill="#FFFCF7"/>
<path d="M24.8128 2.56006H23.1104V3.49182H24.8128V2.56006Z" fill="#FFFCF7"/>
<path d="M23.1105 3.4917H22.2593V5.28618H23.1105V3.4917Z" fill="#FFFCF7"/>
<path d="M22.2591 6.16016V7.03439H21.3734V6.16016H19.9125V6.79282H19.1303V7.57503H20.0045V8.44927H19.1303V7.57503H18.1985V8.9439H17.3243V9.81813H16.7376V10.6924H16.0934C15.3687 11.7621 13.5743 15.098 13.0221 16.4554C11.0551 13.7177 9.52519 12.6364 8.32887 12.2453C7.6847 12.0497 6.90249 12.7514 7.97227 13.8672C10.4454 16.5934 11.2276 18.8365 11.9753 20.6425C12.378 21.5858 14.1609 21.7353 14.5175 20.7691C15.2767 18.733 16.381 16.4324 17.6924 14.5574V13.5796H18.3941V12.7054H19.1303V11.6816H20.0045V10.7039H19.1187V9.80663H20.0045V10.7039H20.8672V9.81813H21.5574V8.74835H22.3396V8.01215H23.0873V6.16016H22.2591Z" fill="#FFFCF7"/>
</g>
<defs>
<clipPath id="clip0_2476_2029">
<rect width="73" height="29" fill="white"/>
</clipPath>
</defs>
</svg>
