<svg width="14" height="14" viewBox="0 0 14 14" fill="none" xmlns="http://www.w3.org/2000/svg">
<g clip-path="url(#clip0_2645_1455)">
<path opacity="0.4" d="M9.3091 8.75H4.25325C4.12391 7.58692 4.12391 6.41308 4.25325 5.25H9.3091C9.37397 5.83107 9.40638 6.41532 9.40617 7C9.40638 7.58468 9.37397 8.16893 9.3091 8.75ZM4.38039 4.375H9.18195C9.17074 4.31184 9.15898 4.24867 9.14695 4.18605C8.98289 3.3425 8.75266 2.59 8.45981 1.94988C8.19047 1.3609 7.87492 0.889766 7.54816 0.587344C7.28375 0.342617 7.02563 0.21875 6.78117 0.21875C6.53672 0.21875 6.2786 0.342617 6.01555 0.587344C5.68742 0.889766 5.37325 1.3609 5.10391 1.94988C4.81243 2.59 4.58 3.3425 4.41676 4.18605C4.40227 4.24867 4.39161 4.31184 4.38039 4.375ZM3.28118 7C3.28083 6.41547 3.31132 5.83132 3.3725 5.25H0.228249C-0.0760829 6.39682 -0.0760829 7.60318 0.228249 8.75H3.37278C3.3115 8.16868 3.28092 7.58454 3.28118 7ZM13.3333 5.25H10.1887C10.2503 5.8313 10.2811 6.41545 10.2812 7C10.2815 7.58453 10.251 8.16868 10.1898 8.75H13.3344C13.6387 7.60318 13.6387 6.39682 13.3344 5.25H13.3333ZM13.0347 4.375C12.6395 3.43619 12.0385 2.59818 11.2759 1.92289C10.5133 1.2476 9.60877 0.752302 8.62906 0.473594C9.28887 1.37594 9.80184 2.74723 10.0714 4.375H13.0347ZM8.62906 13.5264C9.60885 13.2478 10.5135 12.7525 11.2761 12.0772C12.0387 11.4019 12.6398 10.5639 13.035 9.625H10.0714C9.80184 11.2528 9.28887 12.6241 8.62906 13.5264ZM9.18195 9.625H4.38039C4.39161 9.68816 4.40336 9.75133 4.41539 9.81395C4.57946 10.6575 4.80969 11.41 5.10254 12.0501C5.37188 12.6391 5.68715 13.1102 6.01418 13.4127C6.2786 13.6587 6.53672 13.7812 6.78117 13.7812C7.02563 13.7812 7.28375 13.6574 7.54816 13.4127C7.87629 13.1102 8.19047 12.6391 8.45981 12.0501C8.75266 11.41 8.98371 10.6575 9.14695 9.81395C9.16008 9.75133 9.17074 9.68816 9.18195 9.625ZM4.93328 0.473594C3.9535 0.752212 3.04886 1.24748 2.28624 1.92277C1.52362 2.59807 0.922525 3.43613 0.527389 4.375H3.4909C3.76051 2.74723 4.27348 1.37594 4.93328 0.473594ZM0.527389 9.625C0.922525 10.5639 1.52362 11.4019 2.28624 12.0772C3.04886 12.7525 3.9535 13.2478 4.93328 13.5264C4.27348 12.6241 3.76051 11.2528 3.4909 9.625H0.527389Z" fill="#5F5F75"/>
<path d="M10.2811 7.00001C10.2815 6.41547 10.251 5.83133 10.1898 5.25001H13.3343C13.255 4.95183 13.1552 4.65947 13.0357 4.37501H10.0714C9.80179 2.74723 9.28882 1.37594 8.62902 0.473596C8.02772 0.304009 7.40589 0.218251 6.78113 0.218752C7.02558 0.218752 7.28371 0.342619 7.54812 0.587346C7.87624 0.889768 8.19042 1.3609 8.45976 1.94989C8.75261 2.59 8.98366 3.3425 9.14691 4.18606C9.15894 4.24868 9.1707 4.31184 9.18191 4.37501H4.38035C4.39156 4.31184 4.40332 4.24868 4.41535 4.18606C4.57942 3.3425 4.80965 2.59 5.1025 1.94989C5.37184 1.3609 5.68738 0.889768 6.01551 0.587346C6.27855 0.342619 6.53668 0.218752 6.78113 0.218752C6.15637 0.218251 5.53454 0.304009 4.93324 0.473596C4.27344 1.37594 3.76047 2.74723 3.49086 4.37501H0.527353C0.407849 4.65947 0.308082 4.95183 0.22876 5.25001H3.37328C3.25133 6.41349 3.25133 7.58653 3.37328 8.75001H0.22876C0.308082 9.04819 0.407849 9.34055 0.527353 9.62501H3.49086C3.76047 11.2528 4.27344 12.6241 4.93324 13.5264C5.53454 13.696 6.15637 13.7818 6.78113 13.7813C6.53668 13.7813 6.27855 13.6574 6.01414 13.4127C5.68601 13.1102 5.37184 12.6391 5.1025 12.0501C4.80965 11.41 4.5786 10.6575 4.41535 9.81396C4.40332 9.75134 4.39156 9.68817 4.38035 9.62501H9.18191C9.1707 9.68817 9.15894 9.75134 9.14691 9.81396C8.98284 10.6575 8.75261 11.41 8.45976 12.0501C8.19042 12.6391 7.87515 13.1102 7.54812 13.4127C7.28371 13.6588 7.02558 13.7813 6.78113 13.7813C7.40589 13.7818 8.02772 13.696 8.62902 13.5264C9.28882 12.6241 9.80179 11.2528 10.0714 9.62501H13.0349C13.1544 9.34055 13.2542 9.04819 13.3335 8.75001H10.189C10.2506 8.16871 10.2813 7.58456 10.2811 7.00001ZM9.30933 8.75001H4.25321C4.12387 7.58693 4.12387 6.41309 4.25321 5.25001H9.30905C9.37393 5.83108 9.40633 6.41532 9.40612 7.00001C9.40633 7.58469 9.37393 8.16893 9.30905 8.75001H9.30933Z" fill="#5F5F75"/>
</g>
<defs>
<clipPath id="clip0_2645_1455">
<rect width="13.5625" height="14" fill="white"/>
</clipPath>
</defs>
</svg>
