<svg width="14" height="14" viewBox="0 0 14 14" fill="none" xmlns="http://www.w3.org/2000/svg">
<g clip-path="url(#clip0_2639_1449)">
<path opacity="0.4" d="M5.6875 2.1875C6.49724 2.1875 7.28193 2.46828 7.90787 2.98197C8.53381 3.49567 8.96226 4.21052 9.12023 5.0047C9.2782 5.79889 9.15591 6.62327 8.7742 7.3374C8.39248 8.05153 7.77497 8.61121 7.02686 8.92108C6.27875 9.23096 5.44635 9.27185 4.67147 9.03679C3.8966 8.80173 3.2272 8.30526 2.77733 7.63198C2.32746 6.9587 2.12496 6.15027 2.20434 5.34443C2.28371 4.53858 2.64004 3.78519 3.21262 3.21262C3.53686 2.88658 3.92255 2.6281 4.34737 2.45213C4.77218 2.27617 5.22768 2.18622 5.6875 2.1875ZM5.6875 0C2.54625 0 0 2.54625 0 5.6875C0 8.82875 2.54625 11.375 5.6875 11.375C8.82875 11.375 11.375 8.82875 11.375 5.6875C11.375 2.54625 8.82875 0 5.6875 0Z" fill="#5F5F75"/>
<path d="M13.8059 13.0348L13.032 13.8086C12.9713 13.8697 12.8991 13.9182 12.8195 13.9513C12.74 13.9844 12.6547 14.0014 12.5686 14.0014C12.4824 14.0014 12.3971 13.9844 12.3176 13.9513C12.238 13.9182 12.1658 13.8697 12.1051 13.8086L9.37891 11.0824C9.31802 11.0213 9.26977 10.9488 9.23693 10.8691C9.20409 10.7893 9.18729 10.7038 9.1875 10.6176V10.1719L10.1719 9.1875H10.6176C10.7038 9.18729 10.7893 9.20409 10.8691 9.23693C10.9488 9.26977 11.0213 9.31802 11.0824 9.37891L13.8086 12.1051C13.9311 12.229 13.9995 12.3963 13.999 12.5705C13.9985 12.7447 13.9291 12.9116 13.8059 13.0348Z" fill="#5F5F75"/>
</g>
<defs>
<clipPath id="clip0_2639_1449">
<rect width="14" height="14" fill="white"/>
</clipPath>
</defs>
</svg>
