<svg width="178" height="40" viewBox="0 0 178 40" fill="none" xmlns="http://www.w3.org/2000/svg">
<path d="M33.9613 7.73452C33.023 6.79261 31.1029 5.17533 28.5812 5.11581C25.5455 5.04077 23.4043 7.25063 21.1268 9.61575C17.6824 13.1686 15.1273 17.8134 12.6442 22.3263C12.2871 22.9782 11.8878 23.6058 11.449 24.205C10.9347 24.9395 10.3473 25.6193 9.69589 26.2337C7.83742 27.7863 5.6448 28.2313 4.06909 28.3659C5.51089 29.6688 7.17049 30.7043 8.97101 31.4245C12.1284 32.7191 15.6169 32.9515 18.9162 32.087C20.0935 31.7635 22.8748 30.9665 25.2679 28.5522C25.2679 28.5522 29.4526 24.3369 29.8768 14.9153C29.8768 14.8635 29.8768 14.8092 29.8768 14.7186C29.9513 13.3523 30.0927 10.8371 31.6504 9.17326C32.2854 8.50209 33.0811 8.00663 33.9613 7.73452Z" fill="url(#paint0_linear_2632_1424)"/>
<path d="M2.09497 0.300171C3.37651 1.43082 4.75253 2.44809 6.20774 3.34067C9.76787 5.53241 11.616 5.59969 16.1941 7.50421C21.0292 9.51482 23.448 10.5188 25.4735 12.9797C26.2447 13.9268 28.4245 16.649 28.4527 20.6366C28.4552 22.8718 27.8112 25.0594 26.5994 26.9323C23.1807 32.193 16.6542 32.5372 15.644 32.6045C13.1573 32.7457 10.6749 32.261 8.42093 31.1942C10.0508 31.7823 11.8127 31.8935 13.5028 31.5151C14.3896 31.3003 15.8471 30.907 16.5514 29.6416C17.3534 28.2003 16.7262 26.5701 16.6028 26.2466C16.4383 25.8145 16.0887 25.1313 15.0091 24.1144C14.2772 23.4445 13.4806 22.8498 12.6314 22.3392C12.4026 22.1943 12.3923 22.1943 11.5004 21.6665C11.3693 21.5914 9.80128 20.6624 8.5983 19.9327C7.22309 19.0969 6.54191 18.6803 6.09978 18.3801C5.06556 17.709 4.1161 16.9139 3.27225 16.0124C2.56478 15.2434 1.9599 14.3848 1.47291 13.4584C0.416439 11.3883 0.339325 9.45789 0.303338 8.21581C0.247126 5.46933 0.862385 2.75104 2.09497 0.300171Z" fill="url(#paint1_linear_2632_1424)"/>
<path d="M2.095 0.300171C0.864605 2.72283 0.251593 5.41533 0.31108 8.13559C0.349637 9.42942 0.434464 11.2615 1.40868 13.2876C2.93298 16.4471 5.72452 18.1628 7.64468 19.3427C8.11765 19.6326 10.3283 20.96 12.2304 22.0882L12.6314 22.3263C13.0689 21.2017 13.2829 20.0017 13.2612 18.7941C13.222 17.5236 12.9319 16.2736 12.4078 15.1171C11.4336 12.9616 10.282 12.6071 6.70902 9.28969C3.21573 6.05253 2.55511 4.76647 2.23894 3.57614C1.96494 2.50615 1.91591 1.39034 2.095 0.300171Z" fill="#84FFFF" fill-opacity="0.7"/>
<path d="M57.9747 6.46914C58.2792 6.61118 58.5436 6.82764 58.7439 7.0988C58.9441 7.36997 59.0738 7.68724 59.1211 8.02174C59.1791 8.36766 59.1598 8.72224 59.0646 9.05973C58.9695 9.39721 58.8009 9.70913 58.571 9.97283C58.4284 10.191 58.2388 10.374 58.0163 10.5084C57.7938 10.6428 57.5441 10.725 57.2858 10.7491C56.7427 10.7954 56.1974 10.6897 55.7101 10.4438C55.0961 10.1604 54.4542 9.9427 53.7951 9.79428C53.1032 9.63882 52.3962 9.56158 51.6873 9.56398C50.4363 9.54327 49.193 9.76374 48.0243 10.2135C46.9842 10.6231 46.0449 11.2553 45.2714 12.0662C44.5044 12.8832 43.9159 13.8528 43.544 14.9127C43.1427 16.0772 42.9444 17.3028 42.9579 18.5354C42.9284 19.9158 43.1532 21.2898 43.6211 22.5877C44.0307 23.6686 44.6713 24.6456 45.4976 25.4496C46.2842 26.2167 47.2308 26.7975 48.2685 27.1497C49.3812 27.5281 50.5489 27.7161 51.7233 27.706C52.4131 27.7055 53.1014 27.6414 53.7797 27.5146C54.4672 27.3852 55.1318 27.1532 55.7512 26.8262C56.2385 26.582 56.7878 26.4918 57.3269 26.5675C57.5875 26.6065 57.8377 26.6976 58.0629 26.8353C58.288 26.9731 58.4835 27.1547 58.6379 27.3696C58.8737 27.6328 59.046 27.9471 59.1414 28.2882C59.2368 28.6293 59.2527 28.988 59.188 29.3363C59.1281 29.6577 58.9915 29.9596 58.79 30.2161C58.5885 30.4725 58.3281 30.6759 58.0312 30.8086C57.3771 31.138 56.697 31.4124 55.998 31.6289C55.3089 31.8448 54.6054 32.0109 53.8928 32.1258C53.1772 32.2423 52.4533 32.3003 51.7284 32.2991C49.9636 32.3081 48.2106 32.0105 46.5463 31.4193C44.9363 30.8512 43.452 29.9722 42.1765 28.8317C40.8674 27.6401 39.8368 26.1713 39.1587 24.531C38.415 22.8007 38.0431 20.8013 38.0431 18.5328C38.0222 16.6727 38.3636 14.8266 39.0482 13.0987C39.6934 11.4824 40.6639 10.0181 41.8989 8.79803C43.1472 7.5745 44.6247 6.61308 46.2456 5.96972C47.9858 5.2826 49.8412 4.9391 51.7104 4.95795C52.8098 4.95581 53.9055 5.08436 54.9749 5.34092C56.0165 5.59334 57.0238 5.97219 57.9747 6.46914Z" fill="#172B4D"/>
<path d="M75.814 11.0829C76.1157 11.0734 76.4161 11.1261 76.6968 11.2378C76.9775 11.3495 77.2326 11.5179 77.4463 11.7324C77.6624 11.9535 77.8311 12.2168 77.9421 12.5061C78.0531 12.7954 78.1039 13.1045 78.0914 13.4144V29.5769C78.1001 29.8836 78.0475 30.189 77.9366 30.4748C77.8258 30.7606 77.659 31.0211 77.4463 31.2408C77.0095 31.6691 76.4238 31.9089 75.814 31.9089C75.2042 31.9089 74.6185 31.6691 74.1817 31.2408C73.9695 31.0207 73.8032 30.7601 73.6924 30.4744C73.5816 30.1887 73.5286 29.8835 73.5365 29.5769V27.706L74.3719 28.0502C74.3719 28.3814 74.1954 28.7825 73.8424 29.2535C73.427 29.7832 72.9409 30.2525 72.3978 30.6482C71.7401 31.1342 71.0186 31.5261 70.254 31.8127C69.3991 32.1373 68.4918 32.2996 67.5782 32.2914C65.8991 32.3106 64.2507 31.8387 62.833 30.9329C61.3986 30.0121 60.2378 28.7185 59.4734 27.1885C58.6258 25.4888 58.2023 23.6068 58.2396 21.7053C58.2001 19.7911 58.6235 17.896 59.4734 16.1832C60.2337 14.6626 61.3794 13.3709 62.7945 12.4389C64.1715 11.5403 65.7804 11.0688 67.4214 11.0829C68.4459 11.0701 69.4646 11.2382 70.4314 11.5798C71.2807 11.8772 72.0806 12.3021 72.804 12.84C73.3989 13.2744 73.9242 13.798 74.3617 14.3926C74.7284 14.9101 74.9117 15.35 74.9117 15.7123L73.5443 16.2091V13.4144C73.5363 13.1078 73.5893 12.8027 73.7001 12.517C73.8109 12.2312 73.9773 11.9707 74.1894 11.7506C74.3996 11.5322 74.6525 11.3601 74.9321 11.2451C75.2118 11.1302 75.5121 11.075 75.814 11.0829ZM68.1462 28.0864C69.1824 28.1091 70.2011 27.8159 71.0689 27.2454C71.9157 26.6743 72.5919 25.8817 73.025 24.9528C73.5032 23.9388 73.7433 22.8276 73.7268 21.7053C73.7457 20.5702 73.5056 19.4459 73.025 18.4189C72.5901 17.4913 71.9142 16.6991 71.0689 16.1263C70.2011 15.5558 69.1824 15.2627 68.1462 15.2853C67.1228 15.2674 66.1177 15.5605 65.2622 16.1263C64.4173 16.6989 63.7422 17.4912 63.3086 18.4189C62.826 19.4453 62.5849 20.5699 62.6043 21.7053C62.5874 22.8279 62.8284 23.9394 63.3086 24.9528C63.7408 25.8815 64.4161 26.6741 65.2622 27.2454C66.1172 27.8124 67.1226 28.1056 68.1462 28.0864Z" fill="#172B4D"/>
<path d="M90.278 11.0829C92.3018 11.0829 93.7944 11.5729 94.7557 12.5527C95.7512 13.6012 96.4111 14.9263 96.6502 16.3566L96.005 16.0124L96.3109 15.3991C96.6919 14.7078 97.164 14.0716 97.7144 13.5076C98.379 12.81 99.1548 12.2292 100.01 11.7894C100.944 11.3101 101.98 11.0676 103.028 11.0829C104.851 11.0829 106.237 11.478 107.187 12.2681C108.152 13.0848 108.836 14.188 109.14 15.4198C109.509 16.8482 109.688 18.3197 109.672 19.7956V29.5769C109.68 29.8835 109.627 30.1886 109.516 30.4744C109.406 30.7601 109.239 31.0207 109.027 31.2408C108.59 31.6691 108.005 31.9088 107.395 31.9088C106.785 31.9088 106.199 31.6691 105.763 31.2408C105.553 31.0198 105.389 30.7587 105.28 30.473C105.172 30.1872 105.122 29.8825 105.133 29.5769V19.7956C105.142 19.0266 105.04 18.2604 104.829 17.521C104.645 16.8739 104.259 16.304 103.727 15.896C103.197 15.4897 102.442 15.2853 101.449 15.2853C100.587 15.2605 99.7342 15.4716 98.9816 15.896C98.3228 16.2769 97.7873 16.8412 97.4393 17.521C97.09 18.227 96.9137 19.0069 96.9252 19.7956V29.5769C96.9332 29.8835 96.8802 30.1886 96.7694 30.4744C96.6586 30.7601 96.4922 31.0207 96.28 31.2408C95.8433 31.6691 95.2576 31.9088 94.6478 31.9088C94.038 31.9088 93.4523 31.6691 93.0155 31.2408C92.8027 31.0211 92.636 30.7606 92.5251 30.4748C92.4143 30.1889 92.3617 29.8836 92.3703 29.5769V19.7956C92.3793 19.0266 92.2771 18.2604 92.067 17.521C91.8828 16.8739 91.4961 16.304 90.9643 15.896C90.4348 15.4897 89.679 15.2853 88.6868 15.2853C87.8246 15.2605 86.9717 15.4716 86.2192 15.896C85.5604 16.2769 85.0248 16.8412 84.6769 17.521C84.3275 18.227 84.1512 19.0069 84.1628 19.7956V29.5769C84.1707 29.8835 84.1177 30.1886 84.0069 30.4744C83.8961 30.7601 83.7298 31.0207 83.5176 31.2408C83.0808 31.6691 82.4951 31.9088 81.8853 31.9088C81.2755 31.9088 80.6898 31.6691 80.2531 31.2408C80.0403 31.0211 79.8735 30.7606 79.7627 30.4748C79.6518 30.1889 79.5992 29.8836 79.6079 29.5769V13.7922C79.5991 13.4859 79.6517 13.1809 79.7626 12.8955C79.8734 12.6101 80.0402 12.35 80.2531 12.1309C80.6892 11.7013 81.2751 11.4608 81.8853 11.4608C82.4955 11.4608 83.0814 11.7013 83.5176 12.1309C83.7299 12.3504 83.8964 12.6105 84.0072 12.8958C84.1181 13.1811 84.1709 13.4859 84.1628 13.7922V15.4354L83.5921 15.3215C83.8629 14.8263 84.1814 14.3591 84.5432 13.9268C84.9767 13.4012 85.4741 12.9326 86.0238 12.532C86.617 12.0924 87.2685 11.7387 87.9594 11.4814C88.7018 11.2078 89.4875 11.0728 90.278 11.0829Z" fill="#172B4D"/>
<path d="M121.707 11.0829C123.391 11.0591 125.046 11.5303 126.468 12.4389C127.89 13.3612 129.043 14.6471 129.809 16.1651C130.661 17.8698 131.085 19.7587 131.043 21.6664C131.083 23.5807 130.66 25.4759 129.809 27.1885C129.054 28.7068 127.915 29.9982 126.506 30.9328C125.124 31.8391 123.506 32.3119 121.856 32.2914C120.887 32.2985 119.924 32.1302 119.013 31.7945C118.178 31.4906 117.39 31.0651 116.677 30.5317C116.082 30.0981 115.557 29.5744 115.122 28.9792C114.755 28.4616 114.572 28.0226 114.572 27.662L115.746 27.1652V37.2157C115.755 37.5218 115.703 37.8265 115.592 38.1118C115.482 38.3972 115.316 38.6574 115.104 38.8769C114.667 39.3035 114.083 39.5436 113.475 39.547C112.867 39.5504 112.28 39.3168 111.839 38.8951C111.623 38.6747 111.454 38.4119 111.342 38.123C111.231 37.8341 111.179 37.5253 111.191 37.2157V13.7948C111.183 13.4883 111.236 13.1832 111.347 12.8978C111.459 12.6123 111.626 12.3524 111.839 12.1335C112.275 11.7039 112.861 11.4634 113.471 11.4634C114.082 11.4634 114.668 11.7039 115.104 12.1335C115.316 12.3531 115.482 12.6133 115.592 12.8986C115.703 13.184 115.755 13.4887 115.746 13.7948V15.6682L115.104 15.3241C115.104 14.9929 115.278 14.5918 115.633 14.1208C116.051 13.588 116.536 13.1122 117.075 12.7054C117.718 12.2158 118.428 11.8235 119.183 11.5409C119.989 11.2338 120.845 11.0785 121.707 11.0829ZM121.139 15.2853C120.102 15.2634 119.083 15.5565 118.214 16.1263C117.373 16.6958 116.699 17.4811 116.26 18.4008C115.778 19.42 115.538 20.5379 115.559 21.6664C115.544 22.7953 115.784 23.9128 116.26 24.9346C116.69 25.8699 117.366 26.6689 118.214 27.2454C119.082 27.8164 120.102 28.1096 121.139 28.0864C122.169 28.1111 123.182 27.8176 124.041 27.2454C124.881 26.6648 125.55 25.8664 125.977 24.9346C126.454 23.913 126.695 22.7955 126.681 21.6664C126.701 20.5377 126.46 19.4198 125.977 18.4008C125.542 17.4844 124.874 16.6997 124.041 16.1263C123.181 15.5552 122.169 15.2618 121.139 15.2853Z" fill="#172B4D"/>
<path d="M150.936 21.7053C150.976 23.6378 150.497 25.5454 149.551 27.2273C148.663 28.7812 147.379 30.0678 145.831 30.9535C144.229 31.8314 142.434 32.2913 140.611 32.2913C138.787 32.2913 136.992 31.8314 135.39 30.9535C133.842 30.0678 132.558 28.7812 131.67 27.2273C130.724 25.5454 130.246 23.6378 130.285 21.7053C130.246 19.7727 130.724 17.8652 131.67 16.1832C132.561 14.6269 133.844 13.3352 135.39 12.4389C136.988 11.5499 138.785 11.0836 140.611 11.0836C142.437 11.0836 144.233 11.5499 145.831 12.4389C147.377 13.3352 148.66 14.6269 149.551 16.1832C150.497 17.8652 150.975 19.7727 150.936 21.7053ZM146.381 21.7053C146.413 20.5303 146.148 19.3666 145.61 18.3232C145.124 17.4044 144.404 16.6326 143.523 16.0875C142.644 15.5625 141.64 15.2855 140.618 15.2855C139.596 15.2855 138.593 15.5625 137.714 16.0875C136.833 16.6326 136.112 17.4044 135.626 18.3232C135.089 19.3666 134.824 20.5303 134.855 21.7053C134.826 22.8675 135.092 24.018 135.626 25.0485C136.112 25.9673 136.833 26.7391 137.714 27.2842C138.593 27.8092 139.596 28.0862 140.618 28.0862C141.64 28.0862 142.644 27.8092 143.523 27.2842C144.404 26.7391 145.124 25.9673 145.61 25.0485C146.145 24.018 146.41 22.8675 146.381 21.7053Z" fill="#172B4D"/>
<path d="M167.752 11.0829C168.056 11.0723 168.358 11.1245 168.641 11.2362C168.923 11.3479 169.18 11.5168 169.395 11.7324C169.611 11.9538 169.779 12.2172 169.89 12.5064C170.001 12.7956 170.052 13.1046 170.04 13.4144V29.5769C170.048 29.8835 169.995 30.1886 169.884 30.4744C169.774 30.7601 169.607 31.0207 169.395 31.2408C168.958 31.6691 168.373 31.9088 167.763 31.9088C167.153 31.9088 166.567 31.6691 166.131 31.2408C165.918 31.0211 165.751 30.7606 165.64 30.4748C165.529 30.1889 165.477 29.8836 165.485 29.5769V27.706L166.31 28.0502C166.31 28.3814 166.133 28.7825 165.778 29.2534C165.363 29.7825 164.878 30.2518 164.336 30.6482C163.677 31.1336 162.955 31.5255 162.19 31.8126C161.335 32.1373 160.428 32.2996 159.514 32.2914C157.835 32.3103 156.187 31.8384 154.769 30.9328C153.332 30.0124 152.169 28.7188 151.402 27.1885C150.554 25.4888 150.131 23.6068 150.168 21.7053C150.128 19.7911 150.552 17.896 151.402 16.1832C152.167 14.6597 153.32 13.3677 154.743 12.4389C156.12 11.5396 157.729 11.068 159.37 11.0829C160.391 11.0718 161.406 11.2399 162.37 11.5798C163.219 11.8778 164.019 12.3026 164.742 12.8399C165.332 13.276 165.852 13.7995 166.285 14.3925C166.653 14.9101 166.837 15.35 166.835 15.7122L165.47 16.2091V13.4144C165.461 13.1077 165.514 12.8024 165.625 12.5165C165.736 12.2307 165.902 11.9702 166.115 11.7505C166.327 11.5304 166.582 11.3572 166.864 11.2423C167.146 11.1273 167.448 11.073 167.752 11.0829ZM160.085 28.0864C161.121 28.1091 162.14 27.8159 163.007 27.2454C163.853 26.6741 164.529 25.8815 164.961 24.9528C165.44 23.9389 165.681 22.8278 165.665 21.7053C165.683 20.57 165.442 19.4457 164.961 18.4189C164.527 17.4911 163.852 16.6989 163.007 16.1263C162.139 15.5568 161.121 15.2638 160.085 15.2853C159.06 15.2671 158.054 15.5601 157.198 16.1263C156.353 16.6989 155.678 17.4911 155.245 18.4189C154.764 19.4459 154.524 20.5702 154.543 21.7053C154.53 22.8286 154.775 23.9398 155.257 24.9528C155.69 25.8815 156.365 26.6741 157.211 27.2454C158.063 27.8102 159.065 28.1033 160.085 28.0864Z" fill="#172B4D"/>
<path d="M176.482 29.5769C176.488 29.8845 176.433 30.1902 176.319 30.4756C176.205 30.761 176.034 31.0203 175.818 31.2378C175.602 31.4553 175.345 31.6267 175.061 31.7414C174.778 31.8562 174.474 31.9121 174.169 31.9058C173.871 31.9124 173.576 31.8565 173.302 31.7415C173.027 31.6265 172.78 31.4551 172.575 31.2382C172.362 31.0185 172.195 30.758 172.084 30.4722C171.974 30.1864 171.921 29.881 171.93 29.5743V5.9516C171.924 5.64412 171.979 5.3386 172.094 5.05335C172.208 4.76809 172.378 4.50897 172.594 4.29151C172.81 4.07405 173.067 3.90273 173.351 3.7878C173.634 3.67288 173.938 3.61673 174.243 3.62271C174.544 3.6122 174.843 3.66656 175.121 3.78216C175.399 3.89776 175.649 4.07191 175.855 4.29291C176.273 4.7408 176.499 5.33704 176.482 5.9516V29.5769Z" fill="#172B4D"/>
<defs>
<linearGradient id="paint0_linear_2632_1424" x1="9.00699" y1="33.3497" x2="34.3758" y2="8.15184" gradientUnits="userSpaceOnUse">
<stop stop-color="#304FFE"/>
<stop offset="0.99" stop-color="#6200EA"/>
</linearGradient>
<linearGradient id="paint1_linear_2632_1424" x1="-1.27751" y1="3.69776" x2="24.5312" y2="29.3352" gradientUnits="userSpaceOnUse">
<stop stop-color="#00E5FF"/>
<stop offset="0.99" stop-color="#2962FF"/>
</linearGradient>
</defs>
</svg>

