<svg width="48" height="48" viewBox="0 0 48 48" fill="none" xmlns="http://www.w3.org/2000/svg">
<g clip-path="url(#clip0_133_2499)">
<path opacity="0.4" d="M13.5 0C12.61 0 11.74 0.26392 10.9999 0.758387C10.2599 1.25285 9.68314 1.95566 9.34254 2.77792C9.00195 3.60019 8.91283 4.50499 9.08647 5.37791C9.2601 6.25082 9.68868 7.05264 10.318 7.68198C10.9474 8.31132 11.7492 8.7399 12.6221 8.91353C13.495 9.08717 14.3998 8.99805 15.2221 8.65746C16.0443 8.31686 16.7471 7.74009 17.2416 7.00007C17.7361 6.26005 18 5.39002 18 4.5C17.998 3.30713 17.5233 2.16369 16.6798 1.32021C15.8363 0.476726 14.6929 0.00198315 13.5 0V0ZM47.0156 6.24375L30.1012 0.09375C29.916 0.026571 29.7193 -0.00343704 29.5224 0.00544101C29.3255 0.0143191 29.1323 0.0619091 28.9538 0.145491C28.7753 0.229073 28.6151 0.347009 28.4822 0.492558C28.3493 0.638107 28.2464 0.808415 28.1794 0.99375L24.0731 12.2719C24.0059 12.4572 23.9759 12.6539 23.9848 12.8507C23.9937 13.0476 24.0413 13.2408 24.1249 13.4193C24.2084 13.5978 24.3264 13.7581 24.4719 13.8909C24.6175 14.0238 24.7878 14.1267 24.9731 14.1937L41.895 20.3438C42.0803 20.4109 42.277 20.4409 42.4739 20.4321C42.6707 20.4232 42.8639 20.3756 43.0424 20.292C43.2209 20.2084 43.3812 20.0905 43.514 19.9449C43.6469 19.7994 43.7498 19.6291 43.8169 19.4437L47.9062 8.16562C47.9745 7.98088 48.0055 7.78446 47.9976 7.58767C47.9896 7.39088 47.9428 7.19761 47.8599 7.01898C47.7769 6.84035 47.6595 6.6799 47.5142 6.54685C47.369 6.4138 47.1989 6.31079 47.0137 6.24375H47.0156Z" fill="#6059C9"/>
<path d="M30.0939 19.875L25.6126 18.375L20.9907 13.7531C20.4363 13.1934 19.7762 12.7494 19.0488 12.4469C18.3213 12.1443 17.5411 11.9892 16.7532 11.9906H10.8564C9.74173 11.9875 8.64852 12.2968 7.70071 12.8834C6.75289 13.47 5.98839 14.3104 5.49387 15.3094L0.316993 25.6594C0.122497 26.0132 0.00143946 26.4027 -0.0389268 26.8045C-0.079293 27.2062 -0.0381368 27.612 0.0820758 27.9975C0.202288 28.383 0.399083 28.7402 0.660668 29.0478C0.922252 29.3554 1.24324 29.6071 1.6044 29.7877C1.96557 29.9682 2.35947 30.074 2.7625 30.0988C3.16554 30.1235 3.56941 30.0665 3.94992 29.9314C4.33044 29.7963 4.67976 29.5858 4.97695 29.3124C5.27415 29.0391 5.5131 28.7085 5.67949 28.3406L7.50012 24.7125V29.85L6.00762 44.7C5.92906 45.4904 6.16721 46.2798 6.66986 46.8949C7.1725 47.5101 7.89859 47.9007 8.68887 47.9812C8.79199 47.9906 8.89512 48 8.98887 48C9.73164 47.998 10.4474 47.721 10.9979 47.2224C11.5485 46.7238 11.8948 46.0389 11.9701 45.3L13.2076 33H14.642L18.0001 39.7031V45C18.0001 45.7956 18.3162 46.5587 18.8788 47.1213C19.4414 47.6839 20.2045 48 21.0001 48C21.7958 48 22.5588 47.6839 23.1214 47.1213C23.684 46.5587 24.0001 45.7956 24.0001 45V39.7031C24.0005 38.7728 23.7855 37.8551 23.372 37.0219L19.5095 29.2875V20.7375L21.3845 22.6125C22.0444 23.2696 22.8462 23.7667 23.7282 24.0656L28.0501 25.5094L27.0001 28.3969C26.9329 28.5821 26.9029 28.7788 26.9118 28.9757C26.9207 29.1726 26.9683 29.3658 27.0519 29.5443C27.1354 29.7228 27.2534 29.883 27.3989 30.0159C27.5445 30.1488 27.7148 30.2517 27.9001 30.3187L29.3064 30.8344C29.4917 30.9015 29.6884 30.9315 29.8852 30.9227C30.0821 30.9138 30.2753 30.8662 30.4538 30.7826C30.6323 30.699 30.7926 30.5811 30.9254 30.4355C31.0583 30.29 31.1612 30.1197 31.2282 29.9344L35.5586 18.0403L31.3126 16.5L30.0939 19.875ZM40.2826 0.609363L38.8764 0.093738C38.6911 0.026559 38.4944 -0.00344903 38.2975 0.00542901C38.1006 0.0143071 37.9074 0.0618971 37.7289 0.145479C37.5504 0.229061 37.3902 0.346997 37.2573 0.492546C37.1244 0.638095 37.0215 0.808403 36.9545 0.993738L36.4398 2.39999L40.6679 3.93749L41.1826 2.53124C41.2498 2.34596 41.2798 2.14925 41.2709 1.95237C41.2621 1.75549 41.2145 1.56228 41.1309 1.3838C41.0473 1.20532 40.9294 1.04505 40.7838 0.912172C40.6383 0.77929 40.468 0.676393 40.2826 0.609363Z" fill="#6059C9"/>
</g>
<defs>
<clipPath id="clip0_133_2499">
<rect width="48" height="48" fill="white"/>
</clipPath>
</defs>
</svg>
