<svg width="80" height="80" viewBox="0 0 80 80" fill="none" xmlns="http://www.w3.org/2000/svg">
<circle cx="40" cy="40" r="40" fill="#FFFCF7"/>
<g clip-path="url(#clip0_0_1)">
<path opacity="0.4" d="M36.9391 54.8847L38.5 48.25L35.5 43H44.5L41.5 48.25L43.0609 54.8847L40 61L36.9391 54.8847ZM40 40C42.3734 40 44.6935 39.2962 46.6668 37.9776C48.6402 36.6591 50.1783 34.7849 51.0866 32.5922C51.9948 30.3995 52.2324 27.9867 51.7694 25.6589C51.3064 23.3312 50.1635 21.193 48.4853 19.5147C46.8071 17.8365 44.6689 16.6936 42.3411 16.2306C40.0133 15.7676 37.6005 16.0052 35.4078 16.9135C33.2151 17.8217 31.3409 19.3598 30.0224 21.3332C28.7038 23.3066 28 25.6266 28 28C28 31.1826 29.2643 34.2349 31.5147 36.4853C33.7652 38.7357 36.8174 40 40 40Z" fill="#6059C9"/>
<path d="M48.9812 43.0563L40 61L31.0187 43.0563C24.3344 43.375 19 48.8406 19 55.6V59.5C19 60.6935 19.4741 61.8381 20.318 62.682C21.1619 63.5259 22.3065 64 23.5 64H56.5C57.6935 64 58.8381 63.5259 59.682 62.682C60.5259 61.8381 61 60.6935 61 59.5V55.6C61 48.8406 55.6656 43.375 48.9812 43.0563Z" fill="#6059C9"/>
</g>
<defs>
<clipPath id="clip0_0_1">
<rect width="42" height="48" fill="white" transform="translate(19 16)"/>
</clipPath>
</defs>
</svg>
