<svg width="60" height="48" viewBox="0 0 60 48" fill="none" xmlns="http://www.w3.org/2000/svg">
<path opacity="0.4" d="M9 21C10.1867 21 11.3467 20.6481 12.3334 19.9888C13.3201 19.3295 14.0892 18.3925 14.5433 17.2961C14.9974 16.1997 15.1162 14.9933 14.8847 13.8295C14.6532 12.6656 14.0818 11.5965 13.2426 10.7574C12.4035 9.91825 11.3344 9.3468 10.1705 9.11529C9.00666 8.88378 7.80026 9.0026 6.7039 9.45673C5.60754 9.91085 4.67047 10.6799 4.01118 11.6666C3.35189 12.6533 3 13.8133 3 15C3.00149 16.5908 3.63411 18.1161 4.759 19.241C5.8839 20.3659 7.40916 20.9985 9 21ZM54 24H48C46.4153 23.9983 44.8947 24.6254 43.7719 25.7438C45.6709 26.7772 47.2986 28.2451 48.5222 30.0275C49.7458 31.81 50.5305 33.8565 50.8125 36H57C57.7957 36 58.5587 35.6839 59.1213 35.1213C59.6839 34.5587 60 33.7957 60 33V30C59.9985 28.4092 59.3659 26.8839 58.241 25.759C57.1161 24.6341 55.5908 24.0015 54 24ZM6 24C4.40916 24.0015 2.8839 24.6341 1.759 25.759C0.634109 26.8839 0.00148932 28.4092 0 30V33C0 33.7957 0.316071 34.5587 0.87868 35.1213C1.44129 35.6839 2.20435 36 3 36H9.17813C9.46377 33.8564 10.2511 31.8105 11.476 30.0284C12.701 28.2463 14.3292 26.7783 16.2281 25.7438C15.1053 24.6254 13.5847 23.9983 12 24H6ZM51 21C52.1867 21 53.3467 20.6481 54.3334 19.9888C55.3201 19.3295 56.0892 18.3925 56.5433 17.2961C56.9974 16.1997 57.1162 14.9933 56.8847 13.8295C56.6532 12.6656 56.0818 11.5965 55.2426 10.7574C54.4035 9.91825 53.3344 9.3468 52.1705 9.11529C51.0067 8.88378 49.8003 9.0026 48.7039 9.45673C47.6075 9.91085 46.6705 10.6799 46.0112 11.6666C45.3519 12.6533 45 13.8133 45 15C45.0015 16.5908 45.6341 18.1161 46.759 19.241C47.8839 20.3659 49.4092 20.9985 51 21Z" fill="#6059C9"/>
<path d="M37.2 27H36.4219C34.4217 27.9777 32.2263 28.4905 30 28.5C27.6938 28.5 25.5375 27.9375 23.5781 27H22.8C19.9359 27.0008 17.1893 28.1389 15.1641 30.1641C13.1388 32.1893 12.0007 34.9359 12 37.8V40.5C12 41.6935 12.4741 42.8381 13.318 43.682C14.1619 44.5259 15.3065 45 16.5 45H43.5C44.6935 45 45.8381 44.5259 46.682 43.682C47.5259 42.8381 48 41.6935 48 40.5V37.8C47.9993 34.9359 46.8612 32.1893 44.8359 30.1641C42.8107 28.1389 40.0641 27.0008 37.2 27ZM30 24C32.0767 24 34.1068 23.3842 35.8335 22.2304C37.5602 21.0767 38.906 19.4368 39.7007 17.5182C40.4955 15.5996 40.7034 13.4884 40.2982 11.4516C39.8931 9.41476 38.8931 7.54384 37.4246 6.07538C35.9562 4.60693 34.0853 3.6069 32.0485 3.20176C30.0116 2.79661 27.9004 3.00455 25.9818 3.79927C24.0632 4.59399 22.4233 5.9398 21.2696 7.66652C20.1158 9.39323 19.5 11.4233 19.5 13.5C19.4993 14.8791 19.7703 16.2448 20.2978 17.5191C20.8252 18.7933 21.5986 19.9511 22.5737 20.9263C23.5489 21.9014 24.7067 22.6748 25.9809 23.2022C27.2552 23.7297 28.6209 24.0007 30 24Z" fill="#6059C9"/>
</svg>
