<svg width="54" height="48" viewBox="0 0 54 48" fill="none" xmlns="http://www.w3.org/2000/svg">
<g clip-path="url(#clip0_133_2508)">
<path opacity="0.4" d="M50.9999 6H8.99992C8.20427 6 7.44121 6.31607 6.8786 6.87868C6.31599 7.44129 5.99992 8.20435 5.99992 9V39.2072C5.99992 39.2409 5.99524 39.2756 5.99149 39.3094C5.99149 39.3291 5.99149 39.3488 5.98399 39.3684C5.97649 39.3881 5.97649 39.4303 5.9718 39.4622C5.96711 39.4941 5.9643 39.5053 5.96055 39.5259C5.9568 39.5466 5.95117 39.5831 5.94555 39.6113C5.93992 39.6394 5.93524 39.6544 5.93055 39.6759C5.92586 39.6975 5.91836 39.7313 5.91086 39.7575C5.90336 39.7838 5.89867 39.8006 5.89305 39.8222L5.87055 39.9009L5.84805 39.9647C5.83961 39.9909 5.83117 40.0163 5.8218 40.0416C5.81242 40.0669 5.80586 40.0838 5.79742 40.1044C5.78899 40.125 5.77774 40.1541 5.76742 40.1784C5.75711 40.2028 5.74867 40.2206 5.7393 40.2413C5.72992 40.2619 5.71774 40.2891 5.70649 40.3125L5.67555 40.3734C5.66336 40.3969 5.65211 40.4194 5.63899 40.4428L5.60524 40.5019L5.56586 40.5694L5.5293 40.6266C5.51524 40.6481 5.50117 40.6697 5.48617 40.6913L5.4468 40.7475L5.4018 40.8094C5.38774 40.8281 5.37367 40.8459 5.35867 40.8638C5.34367 40.8816 5.32774 40.9041 5.31086 40.9238L5.26586 40.9753L5.21524 41.0325L5.16742 41.0822C5.15055 41.1009 5.13274 41.1188 5.11399 41.1375L5.0643 41.1844L5.00805 41.2369L4.95648 41.2819L4.89836 41.3306L4.84398 41.3738L4.78305 41.4197L4.7268 41.46L4.66305 41.5031C4.6443 41.5163 4.62461 41.5284 4.60492 41.5406L4.54023 41.5809L4.4793 41.6156C4.45773 41.6278 4.43523 41.6409 4.41273 41.6522L4.34992 41.6841C4.32742 41.6963 4.30492 41.7075 4.28148 41.7178L4.2168 41.7469L4.14742 41.7769L4.08086 41.8031L4.00867 41.8303L3.94117 41.8528L3.86805 41.8763L3.79773 41.8959L3.72367 41.9156L3.65242 41.9316L3.57648 41.9475L3.5043 41.9606L3.42742 41.9719L3.35336 41.9813L3.27555 41.9897L3.19961 41.9953H3.04492H49.4999C50.6934 41.9953 51.838 41.5212 52.6819 40.6773C53.5258 39.8334 53.9999 38.6888 53.9999 37.4953V9C53.9999 8.20435 53.6839 7.44129 53.1213 6.87868C52.5587 6.31607 51.7956 6 50.9999 6ZM28.4999 34.875C28.4999 35.1734 28.3814 35.4595 28.1704 35.6705C27.9594 35.8815 27.6733 36 27.3749 36H13.1249C12.8266 36 12.5404 35.8815 12.3294 35.6705C12.1185 35.4595 11.9999 35.1734 11.9999 34.875V34.125C11.9999 33.8266 12.1185 33.5405 12.3294 33.3295C12.5404 33.1185 12.8266 33 13.1249 33H27.3749C27.6733 33 27.9594 33.1185 28.1704 33.3295C28.3814 33.5405 28.4999 33.8266 28.4999 34.125V34.875ZM28.4999 25.875C28.4999 26.1734 28.3814 26.4595 28.1704 26.6705C27.9594 26.8815 27.6733 27 27.3749 27H13.1249C12.8266 27 12.5404 26.8815 12.3294 26.6705C12.1185 26.4595 11.9999 26.1734 11.9999 25.875V25.125C11.9999 24.8266 12.1185 24.5405 12.3294 24.3295C12.5404 24.1185 12.8266 24 13.1249 24H27.3749C27.6733 24 27.9594 24.1185 28.1704 24.3295C28.3814 24.5405 28.4999 24.8266 28.4999 25.125V25.875ZM47.9999 34.875C47.9999 35.1734 47.8814 35.4595 47.6704 35.6705C47.4595 35.8815 47.1733 36 46.8749 36H32.6249C32.3266 36 32.0404 35.8815 31.8294 35.6705C31.6185 35.4595 31.4999 35.1734 31.4999 34.875V34.125C31.4999 33.8266 31.6185 33.5405 31.8294 33.3295C32.0404 33.1185 32.3266 33 32.6249 33H46.8749C47.1733 33 47.4595 33.1185 47.6704 33.3295C47.8814 33.5405 47.9999 33.8266 47.9999 34.125V34.875ZM47.9999 25.875C47.9999 26.1734 47.8814 26.4595 47.6704 26.6705C47.4595 26.8815 47.1733 27 46.8749 27H32.6249C32.3266 27 32.0404 26.8815 31.8294 26.6705C31.6185 26.4595 31.4999 26.1734 31.4999 25.875V25.125C31.4999 24.8266 31.6185 24.5405 31.8294 24.3295C32.0404 24.1185 32.3266 24 32.6249 24H46.8749C47.1733 24 47.4595 24.1185 47.6704 24.3295C47.8814 24.5405 47.9999 24.8266 47.9999 25.125V25.875ZM47.9999 16.875C47.9999 17.1734 47.8814 17.4595 47.6704 17.6705C47.4595 17.8815 47.1733 18 46.8749 18H13.1249C12.8266 18 12.5404 17.8815 12.3294 17.6705C12.1185 17.4595 11.9999 17.1734 11.9999 16.875V13.125C11.9999 12.8266 12.1185 12.5405 12.3294 12.3295C12.5404 12.1185 12.8266 12 13.1249 12H46.8749C47.1733 12 47.4595 12.1185 47.6704 12.3295C47.8814 12.5405 47.9999 12.8266 47.9999 13.125V16.875Z" fill="#6059C9"/>
<path d="M27.375 33H13.125C12.8266 33 12.5405 33.1185 12.3295 33.3295C12.1185 33.5405 12 33.8266 12 34.125V34.875C12 35.1734 12.1185 35.4595 12.3295 35.6705C12.5405 35.8815 12.8266 36 13.125 36H27.375C27.6734 36 27.9595 35.8815 28.1705 35.6705C28.3815 35.4595 28.5 35.1734 28.5 34.875V34.125C28.5 33.8266 28.3815 33.5405 28.1705 33.3295C27.9595 33.1185 27.6734 33 27.375 33ZM27.375 24H13.125C12.8266 24 12.5405 24.1185 12.3295 24.3295C12.1185 24.5405 12 24.8266 12 25.125V25.875C12 26.1734 12.1185 26.4595 12.3295 26.6705C12.5405 26.8815 12.8266 27 13.125 27H27.375C27.6734 27 27.9595 26.8815 28.1705 26.6705C28.3815 26.4595 28.5 26.1734 28.5 25.875V25.125C28.5 24.8266 28.3815 24.5405 28.1705 24.3295C27.9595 24.1185 27.6734 24 27.375 24ZM46.875 33H32.625C32.3266 33 32.0405 33.1185 31.8295 33.3295C31.6185 33.5405 31.5 33.8266 31.5 34.125V34.875C31.5 35.1734 31.6185 35.4595 31.8295 35.6705C32.0405 35.8815 32.3266 36 32.625 36H46.875C47.1734 36 47.4595 35.8815 47.6705 35.6705C47.8815 35.4595 48 35.1734 48 34.875V34.125C48 33.8266 47.8815 33.5405 47.6705 33.3295C47.4595 33.1185 47.1734 33 46.875 33ZM46.875 24H32.625C32.3266 24 32.0405 24.1185 31.8295 24.3295C31.6185 24.5405 31.5 24.8266 31.5 25.125V25.875C31.5 26.1734 31.6185 26.4595 31.8295 26.6705C32.0405 26.8815 32.3266 27 32.625 27H46.875C47.1734 27 47.4595 26.8815 47.6705 26.6705C47.8815 26.4595 48 26.1734 48 25.875V25.125C48 24.8266 47.8815 24.5405 47.6705 24.3295C47.4595 24.1185 47.1734 24 46.875 24ZM0 12V38.9372C0 40.5722 1.28156 41.9541 2.91563 42C3.31663 42.0113 3.71583 41.942 4.0896 41.7963C4.46338 41.6506 4.80413 41.4314 5.0917 41.1517C5.37928 40.872 5.60783 40.5375 5.76384 40.1679C5.91986 39.7983 6.00016 39.4012 6 39V9H3C2.20435 9 1.44129 9.31607 0.87868 9.87868C0.316071 10.4413 0 11.2044 0 12H0Z" fill="#6059C9"/>
</g>
<defs>
<clipPath id="clip0_133_2508">
<rect width="54" height="48" fill="white"/>
</clipPath>
</defs>
</svg>
